<?xml version="1.0" encoding="UTF-8"?>
<svg width="74px" height="13px" viewBox="0 0 74 13" version="1.1" xmlns="http://www.w3.org/2000/svg" xmlns:xlink="http://www.w3.org/1999/xlink">
    <!-- Generator: Sketch 46.1 (44463) - http://www.bohemiancoding.com/sketch -->
    <title>Group 22</title>
    <desc>Created with Sketch.</desc>
    <defs>
        <path d="M16.9281046,6 L0.5,6 L0.5,6 C0.223857625,6 -3.38176876e-17,6.22385763 0,6.5 L0,6.5 L0,6.5 C3.38176876e-17,6.77614237 0.223857625,7 0.5,7 L16.9281046,7 L16.9281046,6 Z M56.5882353,6 L73.5,6 C73.7761424,6 74,6.22385763 74,6.5 L74,6.5 C74,6.77614237 73.7761424,7 73.5,7 L56.5882353,7 L56.5882353,6 Z" id="path-1"></path>
    </defs>
    <g id="Page-1" stroke="none" stroke-width="1" fill="none" fill-rule="evenodd">
        <g id="M&amp;K-Mobile" transform="translate(-150.000000, -527.000000)">
            <g id="Group-22" transform="translate(150.000000, 527.000000)">
                <path d="M37.8690162,0 C36.7568742,0 35.4798347,0.80198595 34.6913804,1.99603866 C34.3310488,2.54122432 33.7746724,3.63434215 34.0965279,4.83045476 C34.6132067,6.75783024 39.3103424,11.1131358 41.4998148,13 C43.6892871,11.1124492 48.3870335,6.75645698 48.9037123,4.83045476 C49.2249571,3.63434215 48.6691914,2.54122432 48.3088599,1.99603866 C47.5197948,0.80198595 46.2427553,0 45.1312241,0 C43.873728,0 42.7060094,0.703797602 42.0085541,1.88343105 L41.4998148,2.74309407 L40.9916862,1.88343105 C40.2936201,0.703797602 39.1265123,0 37.8690162,0 L37.8690162,0 Z" id="Fill-1310" fill="#D4D4D4" fill-rule="nonzero"></path>
                <path d="M27.8690162,0 C26.7568742,0 25.4798347,0.80198595 24.6913804,1.99603866 C24.3310488,2.54122432 23.7746724,3.63434215 24.0965279,4.83045476 C24.6132067,6.75783024 29.3103424,11.1131358 31.4998148,13 C33.6892871,11.1124492 38.3870335,6.75645698 38.9037123,4.83045476 C39.2249571,3.63434215 38.6691914,2.54122432 38.3088599,1.99603866 C37.5197948,0.80198595 36.2427553,0 35.1312241,0 C33.873728,0 32.7060094,0.703797602 32.0085541,1.88343105 L31.4998148,2.74309407 L30.9916862,1.88343105 C30.2936201,0.703797602 29.1265123,0 27.8690162,0 L27.8690162,0 Z" id="Fill-1310" fill="#FA548B" fill-rule="nonzero"></path>
                <mask id="mask-2" fill="white">
                    <use xlink:href="#path-1"></use>
                </mask>
                <use id="Combined-Shape" fill="#D4D4D4" xlink:href="#path-1"></use>
            </g>
        </g>
    </g>
</svg>