<?xml version="1.0" encoding="UTF-8"?>
<svg width="74px" height="13px" viewBox="0 0 74 13" version="1.1" xmlns="http://www.w3.org/2000/svg" xmlns:xlink="http://www.w3.org/1999/xlink">
    <!-- Generator: Sketch 46.1 (44463) - http://www.bohemiancoding.com/sketch -->
    <title>Group 22</title>
    <desc>Created with Sketch.</desc>
    <defs>
        <path d="M16.9281046,6 L0.5,6 L0.5,6 C0.223857625,6 -3.38176876e-17,6.22385763 0,6.5 L0,6.5 L0,6.5 C3.38176876e-17,6.77614237 0.223857625,7 0.5,7 L16.9281046,7 L16.9281046,6 Z M56.5882353,6 L73.5,6 C73.7761424,6 74,6.22385763 74,6.5 L74,6.5 C74,6.77614237 73.7761424,7 73.5,7 L56.5882353,7 L56.5882353,6 Z" id="path-1"></path>
    </defs>
    <g id="Page-1" stroke="none" stroke-width="1" fill="none" fill-rule="evenodd">
        <g id="M&amp;K-Mobile" transform="translate(-151.000000, -3639.000000)">
            <g id="Group-8" transform="translate(-532.000000, 3424.000000)">
                <g id="Group-7" transform="translate(645.000000, 98.000000)">
                    <g id="Group-22" transform="translate(38.000000, 117.000000)">
                        <path d="M37.7573107,0 C36.6772782,0 35.4371092,0.80198595 34.671419,1.99603866 C34.3214908,2.54122432 33.781178,3.63434215 34.093741,4.83045476 C34.5955024,6.75783024 39.1570233,11.1131358 41.2832815,13 C43.4095398,11.1124492 47.9716538,6.75645698 48.4734152,4.83045476 C48.785385,3.63434215 48.2456654,2.54122432 47.8957372,1.99603866 C47.1294539,0.80198595 45.8892848,0 44.8098455,0 C43.5886556,0 42.4546512,0.703797602 41.7773326,1.88343105 L41.2832815,2.74309407 L40.7898235,1.88343105 C40.1119119,0.703797602 38.9785006,0 37.7573107,0 L37.7573107,0 Z" id="Fill-1310" fill="#FFFFFF" fill-rule="nonzero"></path>
                        <path d="M27.7573107,0 C26.6772782,0 25.4371092,0.80198595 24.671419,1.99603866 C24.3214908,2.54122432 23.781178,3.63434215 24.093741,4.83045476 C24.5955024,6.75783024 29.1570233,11.1131358 31.2832815,13 C33.4095398,11.1124492 37.9716538,6.75645698 38.4734152,4.83045476 C38.785385,3.63434215 38.2456654,2.54122432 37.8957372,1.99603866 C37.1294539,0.80198595 35.8892848,0 34.8098455,0 C33.5886556,0 32.4546512,0.703797602 31.7773326,1.88343105 L31.2832815,2.74309407 L30.7898235,1.88343105 C30.1119119,0.703797602 28.9785006,0 27.7573107,0 L27.7573107,0 Z" id="Fill-1310" fill="#FA548B" fill-rule="nonzero"></path>
                        <mask id="mask-2" fill="white">
                            <use xlink:href="#path-1"></use>
                        </mask>
                        <use id="Combined-Shape" fill="#FFFFFF" xlink:href="#path-1"></use>
                    </g>
                </g>
            </g>
        </g>
    </g>
</svg>