<?xml version="1.0" encoding="UTF-8"?>
<svg width="10px" height="14px" viewBox="0 0 10 14" version="1.1" xmlns="http://www.w3.org/2000/svg" xmlns:xlink="http://www.w3.org/1999/xlink">
    <!-- Generator: Sketch 46.1 (44463) - http://www.bohemiancoding.com/sketch -->
    <title>Page 1</title>
    <desc>Created with Sketch.</desc>
    <defs></defs>
    <g id="Page-1" stroke="none" stroke-width="1" fill="none" fill-rule="evenodd">
        <g id="Props-Recent-Copy" transform="translate(-133.000000, -430.000000)" fill="#FB548C">
            <g id="Group-3" transform="translate(120.000000, 416.000000)">
                <g id="Pre-Order">
                    <g id="Top-Bar">
                        <g id="Property-Name" transform="translate(13.000000, 12.000000)">
                            <path d="M4.58999996,2.16666667 C2.05566427,2.16666667 0,4.22233094 0,6.75666663 C0,10.1991666 4.58999996,15.2809523 4.58999996,15.2809523 C4.58999996,15.2809523 9.17999992,10.1991666 9.17999992,6.75666663 C9.17999992,4.22233094 7.12433566,2.16666667 4.58999996,2.16666667 L4.58999996,2.16666667 Z M4.58999996,8.39595233 C3.68511426,8.39595233 2.95071426,7.66155234 2.95071426,6.75666663 C2.95071426,5.85178092 3.68511426,5.11738093 4.58999996,5.11738093 C5.49488567,5.11738093 6.22928566,5.85178092 6.22928566,6.75666663 C6.22928566,7.66155234 5.49488567,8.39595233 4.58999996,8.39595233 L4.58999996,8.39595233 Z" id="Page-1"></path>
                        </g>
                    </g>
                </g>
            </g>
        </g>
    </g>
</svg>