<?xml version="1.0" encoding="UTF-8"?>
<svg width="77px" height="77px" viewBox="0 0 77 77" version="1.1" xmlns="http://www.w3.org/2000/svg" xmlns:xlink="http://www.w3.org/1999/xlink">
    <!-- Generator: Sketch 46.1 (44463) - http://www.bohemiancoding.com/sketch -->
    <title>Group 21</title>
    <desc>Created with Sketch.</desc>
    <defs></defs>
    <g id="Page-1" stroke="none" stroke-width="1" fill="none" fill-rule="evenodd">
        <g id="M&amp;K-Desktop" transform="translate(-176.000000, -61.000000)">
            <g id="Group-21" transform="translate(176.000000, 61.000000)">
                <rect id="Rectangle-7" fill="#ED5989" x="0" y="0" width="77" height="77" rx="38.5"></rect>
                <path d="M17.0292445,45.1993068 C17.0075818,45.3610638 16.9561336,45.4931634 16.8748985,45.5956095 C16.7936633,45.6980556 16.6961825,45.7789329 16.5824533,45.8382438 C16.468724,45.8975547 16.3468731,45.9393413 16.2168968,45.9636049 C16.0869206,45.9878684 15.9623618,46 15.8432169,46 C15.7024093,46 15.5656654,45.9851725 15.4329813,45.955517 C15.3002972,45.9258616 15.182508,45.8800311 15.0796101,45.8180243 C14.9767122,45.7560174 14.8954782,45.6805319 14.8359058,45.5915656 C14.7763333,45.5025992 14.7465475,45.4015026 14.7465475,45.2882727 C14.7465475,45.0672047 14.7573787,44.8636636 14.7790414,44.677643 C14.8007041,44.4916224 14.8331977,44.3042567 14.8765232,44.1155402 C15.0281621,43.4846878 15.1608443,42.8983274 15.2745735,42.3564414 C15.3883028,41.8145553 15.4857835,41.3009845 15.5670187,40.8157135 C15.6482539,40.3304424 15.7186566,39.8600061 15.7782291,39.4043905 C15.8378015,38.9487749 15.8906036,38.4904702 15.9366369,38.0294627 C15.9826701,37.5684552 16.024641,37.0926271 16.0625508,36.6019642 L16.1844029,35.0248411 L16.1844029,34.8388215 C16.1844029,34.7633349 16.1762795,34.6918933 16.1600325,34.6244945 C16.1437855,34.5570958 16.1153536,34.4991337 16.074736,34.4506066 C16.0341184,34.4020795 15.9731929,34.3778163 15.8919578,34.3778163 C15.7619815,34.3778163 15.6035753,34.4222988 15.4167344,34.5112652 C15.2298935,34.6002315 15.0335781,34.7201995 14.8277823,34.8711727 C14.6219865,35.022146 14.4161938,35.198728 14.2103981,35.4009243 C14.0046023,35.6031206 13.8150564,35.8201413 13.6417547,36.0519931 C13.6092606,36.1328716 13.5578124,36.1908336 13.4874086,36.225881 C13.4170048,36.2609283 13.3384786,36.2784518 13.2518278,36.2784518 C13.2247494,36.2784518 13.1963175,36.2555365 13.1665313,36.2097054 C13.136745,36.1638742 13.1096671,36.1086081 13.0852965,36.0439053 C13.060926,35.9792024 13.0406175,35.9104567 13.0243704,35.8376661 C13.0081234,35.7648754 13,35.6988256 13,35.6395147 C13,35.6071633 13.0108312,35.5802042 13.0324939,35.5586366 C13.2274583,34.9223924 13.4481439,34.3899502 13.6945573,33.961294 C13.9409706,33.5326379 14.2009193,33.1902574 14.474411,32.9341421 C14.7479028,32.6780268 15.0268061,32.4960529 15.3111292,32.3882149 C15.5954523,32.2803769 15.867586,32.2264587 16.1275386,32.2264587 C16.4633106,32.2264587 16.7422139,32.2898126 16.9642567,32.4165222 C17.1862995,32.5432319 17.3623064,32.721162 17.4922827,32.9503177 C17.622259,33.1794735 17.7129702,33.4558043 17.7644192,33.7793183 C17.8158681,34.1028324 17.8415922,34.4613884 17.8415922,34.8549971 C17.8415922,35.1569435 17.817222,35.5101077 17.7684809,35.9145003 C17.7197398,36.3188928 17.6588143,36.7434986 17.5857027,37.1883304 C17.512591,37.6331622 17.432711,38.0793353 17.3460601,38.5268631 C17.2594093,38.9743908 17.1754675,39.3922569 17.0942323,39.7804737 C17.267534,39.0633509 17.4719728,38.374546 17.7075548,37.7140381 C17.9431368,37.0535303 18.2003777,36.4361669 18.4792851,35.8619295 C18.7581926,35.2876921 19.0546965,34.7673815 19.3688058,34.3009821 C19.6829152,33.8345827 20.0064971,33.4342401 20.3395613,33.0999422 C20.6726255,32.7656444 21.0097465,32.506837 21.3509342,32.3235124 C21.6921219,32.1401878 22.0305968,32.0485269 22.3663688,32.0485269 C22.61549,32.0485269 22.8456529,32.1024451 23.0568643,32.2102831 C23.2680758,32.3181211 23.4494983,32.4852675 23.6011373,32.7117273 C23.7527763,32.9381872 23.8705655,33.2239536 23.9545085,33.5690352 C24.0384515,33.9141169 24.0804224,34.3238952 24.0804224,34.7983824 C24.0804224,34.8415176 24.0763607,34.9089154 24.0682372,35.0005777 C24.0601137,35.09224 24.0492825,35.1973805 24.0357433,35.3160023 C24.0222041,35.4346241 24.0059573,35.5626798 23.9870024,35.7001733 C23.9680476,35.8376668 23.9504469,35.9738102 23.9341998,36.1086077 C23.8908744,36.4321218 23.8448418,36.7825901 23.7961007,37.1600231 L23.9666937,37.1519353 C24.1779052,36.353934 24.4378539,35.636822 24.7465475,35.0005777 C25.0552412,34.3643334 25.4018394,33.8238035 25.7863526,33.3789717 C26.1708657,32.9341399 26.5851589,32.5931073 27.0292445,32.3558637 C27.4733301,32.11862 27.9336559,32 28.4102356,32 C28.740592,32 29.0343881,32.0970528 29.2916328,32.2911612 C29.5488775,32.4852696 29.7641475,32.7481208 29.9374492,33.0797227 C30.1107509,33.4113246 30.2434331,33.7995356 30.3354996,34.2443674 C30.4275661,34.6891992 30.4735987,35.1596355 30.4735987,35.6556904 C30.4735987,36.1193938 30.442459,36.5952219 30.3801787,37.0831889 C30.3178984,37.5711559 30.2407262,38.0537238 30.1486596,38.530907 C30.0565931,39.0080902 29.9577584,39.4758306 29.8521527,39.9341421 C29.746547,40.3924537 29.6477123,40.8264952 29.5556458,41.2362796 C29.4635793,41.6460641 29.386407,42.0248394 29.3241267,42.372617 C29.2618464,42.7203946 29.2307067,43.0209885 29.2307067,43.2744079 C29.2307067,43.59253 29.2889244,43.8230303 29.4053615,43.9659157 C29.5217986,44.108801 29.691036,44.1802426 29.9130788,44.1802426 C30.0376394,44.1802426 30.1689676,44.1465438 30.3070674,44.079145 C30.4451672,44.0117462 30.5832649,43.9227812 30.7213647,43.8122473 C30.8594645,43.7017133 30.9962084,43.5750055 31.1316003,43.4321202 C31.2669923,43.2892348 31.3969666,43.1423077 31.5215272,42.9913345 C31.8085582,42.6462528 32.092877,42.2499541 32.3744923,41.8024263 C32.3744923,41.8078182 32.3988625,41.8644324 32.4476036,41.9722704 C32.4855133,42.0639327 32.5477927,42.2202954 32.6344435,42.4413634 C32.7210944,42.6624313 32.8429453,42.9805487 33,43.395725 C32.7292161,43.8702123 32.4503128,44.2719028 32.1632819,44.6008088 C31.8762509,44.9297147 31.5838087,45.1979578 31.2859464,45.4055459 C30.9880841,45.6131341 30.6861645,45.7627571 30.3801787,45.8544194 C30.0741929,45.9460817 29.7695656,45.9919122 29.4662876,45.9919122 C29.1738409,45.9919122 28.8881682,45.9406899 28.6092608,45.8382438 C28.3303533,45.7357977 28.0825898,45.5834788 27.8659626,45.3812825 C27.6493355,45.1790862 27.4760364,44.9283666 27.3460601,44.6291161 C27.2160838,44.3298656 27.1510967,43.9861371 27.1510967,43.5979203 C27.1510967,43.5547851 27.1524506,43.5089546 27.1551584,43.4604275 C27.1578662,43.4119004 27.1619279,43.363374 27.1673436,43.3148469 C27.1890063,42.9535896 27.2350389,42.5694224 27.3054427,42.1623339 C27.3758465,41.7552454 27.4557266,41.3360314 27.5450853,40.9046794 C27.634444,40.4733273 27.727863,40.033894 27.8253452,39.5863663 C27.9228275,39.1388385 28.0121848,38.6926654 28.09342,38.2478336 C28.1746552,37.8030018 28.2423501,37.3635685 28.2965069,36.9295205 C28.3506637,36.4954725 28.3777417,36.0789544 28.3777417,35.6799538 C28.3777417,35.4373183 28.3696183,35.2176016 28.3533712,35.0207972 C28.3371242,34.8239929 28.3046306,34.6568464 28.2558895,34.519353 C28.2071484,34.3818595 28.1367457,34.2753711 28.0446791,34.1998845 C27.9526126,34.1243979 27.8307617,34.0866551 27.6791227,34.0866551 C27.3920917,34.0866551 27.1213119,34.1864038 26.866775,34.3859041 C26.6122381,34.5854044 26.371244,34.8603872 26.1437855,35.2108608 C25.9163271,35.5613343 25.7037649,35.9765044 25.5060926,36.4563836 C25.3084203,36.9362627 25.1215823,37.4552254 24.9455727,38.0132871 C24.7695632,38.5713488 24.6057413,39.1563613 24.4541024,39.768342 C24.3024634,40.3803227 24.1616578,40.9963381 24.0316816,41.6164067 C23.9017053,42.2364753 23.7798543,42.8484468 23.6661251,43.4523397 C23.5523959,44.0562326 23.4467917,44.6277655 23.3493095,45.1669555 C23.3059841,45.3179287 23.239643,45.4459845 23.1502843,45.5511265 C23.0609256,45.6562686 22.9580293,45.7411897 22.8415922,45.8058925 C22.7251551,45.8705954 22.6019503,45.9177738 22.471974,45.9474292 C22.3419977,45.9770847 22.2120234,45.9919122 22.0820471,45.9919122 C21.9683179,45.9919122 21.8559442,45.9703449 21.7449228,45.9272097 C21.6339014,45.8840745 21.5364207,45.8153288 21.4524777,45.7209705 C21.3685346,45.6266123 21.3008397,45.5066443 21.2493907,45.361063 C21.1979418,45.2154817 21.1722177,45.0375516 21.1722177,44.8272675 C21.1722177,44.6870781 21.2047113,44.4457941 21.2696994,44.1034084 C21.3346876,43.7610227 21.4172754,43.3512444 21.5174655,42.8740612 C21.6176555,42.396878 21.7259675,41.8738715 21.8424045,41.305026 C21.9588416,40.7361805 22.0671536,40.1565599 22.1673436,39.5661467 C22.2675337,38.9757336 22.3501215,38.3920691 22.4151097,37.8151358 C22.4800978,37.2382024 22.5125914,36.7071081 22.5125914,36.2218371 C22.5125914,35.8875392 22.504468,35.5882933 22.488221,35.3240901 C22.4719739,35.059887 22.4340647,34.8361265 22.3744923,34.6528018 C22.3149198,34.4694772 22.2296242,34.3292899 22.1186028,34.2322357 C22.0075814,34.1351815 21.8600063,34.0866551 21.6758733,34.0866551 C21.5242343,34.0866551 21.3509352,34.1890997 21.1559708,34.3939919 C20.9610063,34.5988841 20.7511519,34.8819547 20.5264013,35.243212 C20.3016506,35.6044694 20.0701339,36.0290752 19.831844,36.5170422 C19.5935542,37.0050092 19.3566218,37.5320596 19.1210398,38.0982091 C18.8854578,38.6643587 18.6580027,39.2561109 18.4386677,39.8734835 C18.2193328,40.4908562 18.0176018,41.1082195 17.8334687,41.7255921 C17.6493357,42.3429648 17.4868677,42.9468486 17.3460601,43.5372617 C17.2052525,44.1276748 17.0996483,44.6816843 17.0292445,45.1993068 Z" id="M" fill="#FFFFFF"></path>
                <path d="M62.9997057,45.5430099 C62.9954283,45.5408333 62.9445242,45.5730924 62.8469919,45.6397879 C62.7449861,45.7095428 62.6027168,45.7988276 62.42018,45.9076451 C62.2376432,46.0164626 62.021555,46.1336489 61.771909,46.2592076 C61.5222631,46.3847663 61.2471198,46.5033477 60.9464709,46.6149554 C60.645822,46.7265631 60.3277295,46.818638 59.9921838,46.891183 C59.6566381,46.963728 59.3143867,47 58.9654192,47 C58.5788706,47 58.2366192,46.9372216 57.9386547,46.8116629 C57.6406901,46.6861043 57.374942,46.51451 57.1414022,46.296875 C56.9078624,46.07924 56.6998272,45.8239412 56.5172904,45.530971 C56.3347535,45.2380008 56.1656411,44.9241088 56.0099479,44.5892857 C55.8542547,44.2544626 55.7052747,43.9070889 55.5630033,43.547154 C55.420732,43.1872192 55.2730941,42.831475 55.1200853,42.4799107 C54.9670764,42.1283465 54.8019905,41.7893432 54.6248224,41.4628906 C54.4476543,41.1364381 54.2463299,40.8392871 54.0208432,40.5714286 C53.7363005,41.7098271 53.4034442,42.6849848 53.0222643,43.4969308 C52.6410845,44.3088768 52.215619,44.9743278 51.745855,45.4933036 C51.2760911,46.0122794 50.7687537,46.3931349 50.2238276,46.6358817 C49.6789014,46.8786284 49.1031137,47 48.4964472,47 C48.2870667,47 48.0401088,46.9860492 47.7555661,46.9581473 C47.4710234,46.9302454 47.1985644,46.8828128 46.938181,46.8158482 C46.6777975,46.7488836 46.4563407,46.6623889 46.2738039,46.5563616 C46.091267,46.4503343 46,46.3191972 46,46.1629464 C46,46.012276 46.0348962,45.8741636 46.1046897,45.7486049 C46.1744832,45.6230462 46.2442757,45.4960944 46.3140692,45.3677455 C46.3355441,45.3286828 46.3704403,45.2784601 46.4187589,45.2170759 C46.4670775,45.1556917 46.5234483,45.0957034 46.587873,45.0371094 C46.6522978,44.9785153 46.7220903,44.9282926 46.7972525,44.8864397 C46.8724147,44.8445868 46.9475758,44.8236607 47.022738,44.8236607 C47.0549504,44.8236607 47.0791093,44.8264509 47.0952155,44.8320312 C47.2831211,44.9213174 47.472366,44.9924663 47.6629559,45.0454799 C47.8535459,45.0984936 48.0374221,45.125 48.2145902,45.125 C48.697776,45.125 49.135321,44.9715417 49.5272383,44.6646205 C49.9191556,44.3576994 50.2708022,43.9391768 50.5821885,43.4090402 C50.8935749,42.8789036 51.1687182,42.2553049 51.4076267,41.5382254 C51.6465352,40.821146 51.8545704,40.0510644 52.0317385,39.2279576 C52.2089066,38.4048508 52.360571,37.5510647 52.4867361,36.6665737 C52.6129013,35.7820826 52.7189321,34.9045802 52.8048318,34.0340402 L52.9014685,33.3392857 C52.4290202,33.3392857 52.0022125,33.3978789 51.6210327,33.515067 C51.2398528,33.6322551 50.8989436,33.7912936 50.5982946,33.9921875 C50.2976457,34.1930814 50.0386084,34.4260589 49.8211748,34.6911272 C49.6037412,34.9561955 49.4238914,35.2338155 49.2816201,35.5239955 C49.1393487,35.8141756 49.0346601,36.1113266 48.9675509,36.4154576 C48.9004418,36.7195886 48.8668877,37.0083692 48.8668877,37.281808 C48.8668877,37.30971 48.8574926,37.3571425 48.838702,37.4241071 C48.8199115,37.4910718 48.7769623,37.5594305 48.7098532,37.6291853 C48.642744,37.6989401 48.543424,37.7603234 48.4118901,37.8133371 C48.2803562,37.8663507 48.0991643,37.8928571 47.8683089,37.8928571 C47.56766,37.8928571 47.3300972,37.8649556 47.1556135,37.8091518 C46.9811297,37.7533479 46.8495978,37.6877794 46.7610137,37.6124442 C46.6724297,37.537109 46.6147167,37.4575897 46.587873,37.3738839 C46.5610294,37.2901782 46.5476078,37.2204244 46.5476078,37.1646205 L46.5476078,37.0892857 C46.5476078,37.0781249 46.5502921,37.0697545 46.5556608,37.0641741 C46.6415605,36.3108221 46.8308054,35.6621121 47.1234012,35.1180246 C47.415997,34.573937 47.7743544,34.1149572 48.1984841,33.7410714 C48.6226138,33.3671856 49.0910285,33.0658494 49.6037423,32.8370536 C50.1164561,32.6082578 50.6305043,32.4324783 51.1459024,32.3097098 C51.6613005,32.1869414 52.1592428,32.1046319 52.6397442,32.062779 C53.1202456,32.0209261 53.5403424,32 53.9000474,32 C54.1094279,32 54.2798825,32.0251114 54.4114164,32.0753348 C54.5429503,32.1255583 54.6462968,32.1897318 54.721459,32.2678571 C54.7966213,32.3459825 54.8476234,32.4324772 54.8744671,32.5273438 C54.9013107,32.6222103 54.9147324,32.7142853 54.9147324,32.8035714 C54.9147324,33.0323672 54.9133902,33.2374433 54.9107058,33.4188058 C54.9080215,33.6001683 54.8986263,33.7717626 54.8825201,33.9335938 C54.8288328,34.4190872 54.7818571,34.9115488 54.7415917,35.4109933 C54.7013262,35.9104378 54.6650878,36.3638372 54.6328754,36.7712054 C54.5952943,37.2511185 54.5630824,37.7142835 54.5362387,38.1607143 C55.0945867,38.1607143 55.6086349,38.1439734 56.0783989,38.1104911 C56.5481628,38.0770088 56.9736283,38.0058599 57.3548081,37.8970424 C57.735988,37.7882249 58.0728708,37.6319765 58.3654666,37.4282924 C58.6580624,37.2246084 58.902336,36.9539637 59.0982946,36.6163504 C59.2942533,36.2787372 59.4418912,35.8643998 59.5412127,35.3733259 C59.6405342,34.882252 59.6901942,34.2935302 59.6901942,33.6071429 C59.6901942,33.3281236 59.6915364,33.1063066 59.6942207,32.9416853 C59.6969051,32.7770639 59.7264327,32.6501121 59.7828044,32.5608259 C59.839176,32.4715397 59.9384961,32.4073663 60.0807674,32.3683036 C60.2230388,32.3292409 60.4364426,32.2957591 60.7209853,32.2678571 C60.9303658,32.2678571 61.1008204,32.2971537 61.2323543,32.3557478 C61.3638882,32.4143418 61.4658926,32.4854907 61.5383704,32.5691964 C61.6108483,32.6529022 61.6591662,32.7380018 61.6833254,32.8244978 C61.7074847,32.9109937 61.7222485,32.9821426 61.7276172,33.0379464 C61.7383547,33.1662953 61.7423812,33.3350994 61.7396968,33.5443638 C61.7370125,33.7536283 61.7410389,33.9475438 61.7517764,34.1261161 C61.7517764,34.7566996 61.7128537,35.3328657 61.6350071,35.8546317 C61.5571605,36.3763977 61.4283129,36.8465381 61.2484604,37.265067 C61.068608,37.6835958 60.8297031,38.0491056 60.5317385,38.3616071 C60.233774,38.6741087 59.8646793,38.9349878 59.4244434,39.1442522 C58.9842075,39.3535167 58.4674749,39.5097651 57.8742302,39.6130022 C57.2809855,39.7162394 56.5978248,39.7678571 55.8247276,39.7678571 C56.1468514,40.6383972 56.440785,41.4070837 56.7065372,42.0739397 C56.9722893,42.7407957 57.2326689,43.300221 57.4876836,43.7522321 C57.7426983,44.2042433 58.0044199,44.5460368 58.2728565,44.7776228 C58.541293,45.0092087 58.8419374,45.125 59.1747987,45.125 C59.3788104,45.125 59.6042937,45.0957034 59.8512553,45.0371094 C60.0982169,44.9785153 60.3492013,44.8948108 60.604216,44.7859933 C60.8592307,44.6771758 61.1128994,44.5474338 61.3652297,44.3967634 C61.6175601,44.246093 61.8510964,44.0814741 62.0658456,43.9029018 L62.9997057,45.5430099 L62.9997057,45.5430099 Z" id="K" fill="#FFFFFF"></path>
                <path d="M37.0634753,37 C36.4703329,37 35.7892452,37.4318386 35.3687362,38.07479 C35.1765594,38.3683516 34.8798253,38.9569535 35.0514816,39.6010141 C35.3270436,40.6388317 37.8321826,42.9839962 38.9999012,44 C40.1676198,42.9836265 42.6730845,40.6380922 42.9486466,39.6010141 C43.1199771,38.9569535 42.8235688,38.3683516 42.6313919,38.07479 C42.2105572,37.4318386 41.5294695,37 40.9366528,37 C40.2659882,37 39.643205,37.3789679 39.2712288,38.0141552 L38.9999012,38.4770507 L38.7288993,38.0141552 C38.3565974,37.3789679 37.7341399,37 37.0634753,37 L37.0634753,37 Z" id="Fill-1310" fill="#FFFFFF" fill-rule="nonzero"></path>
            </g>
        </g>
    </g>
</svg>